# xmcd
#
# Track frame offsets: 
#        150
#        18380
#        33001
#        67550
#        85349
#        108568
#        131114
#        146981
#        173774
#        198133
#        219429
#
# Disc length: 3219 seconds
#
# Revision: 0
# Processed by: cddbd v1.5.2PL0 Copyright (c) Steve Scherf et al.
# Submitted via: ExactAudioCopyFreeDBPlugin 1.0
#
DISCID=910c910b
DTITLE=PfreeSpirit and Pfiends - Calloused Pfingers and Healing hearts
DYEAR=2015
DGENRE=Blues
TTITLE0=Strange Love Affair
TTITLE1=Munchie Business
TTITLE2=Comin' Home
TTITLE3=All of Me Praise
TTITLE4=FRET
TTITLE5=I Believe You're In Control
TTITLE6=JessE
TTITLE7=Time Will Tell
TTITLE8=Nothing But The Blood of Jesus
TTITLE9=What Might Have Been
TTITLE10=Coming Back for More
EXTD=
EXTT0=
EXTT1=
EXTT2=
EXTT3=
EXTT4=
EXTT5=
EXTT6=
EXTT7=
EXTT8=
EXTT9=
EXTT10=
PLAYORDER=
